<svg class="main-svg" xmlns="http://www.w3.org/2000/svg" xmlns:xlink="http://www.w3.org/1999/xlink" width="800" height="600" style="" viewBox="0 0 800 600"><rect x="0" y="0" width="800" height="600" style="fill: rgb(0, 0, 0); fill-opacity: 0;"/><defs id="defs-b9dd34"><g class="clips"><clipPath id="clipb9dd34xyplot" class="plotclip"><rect width="584" height="420"/></clipPath><clipPath class="axesclip" id="clipb9dd34x"><rect x="80" y="0" width="584" height="600"/></clipPath><clipPath class="axesclip" id="clipb9dd34y"><rect x="0" y="100" width="800" height="420"/></clipPath><clipPath class="axesclip" id="clipb9dd34xy"><rect x="80" y="100" width="584" height="420"/></clipPath></g><g class="gradients"/><g class="patterns"/></defs><g class="bglayer"><rect class="bg" x="80" y="100" width="584" height="420" style="fill: rgb(0, 0, 0); fill-opacity: 0; stroke-width: 0;"/></g><g class="layer-below"><g class="imagelayer"/><g class="shapelayer"/></g><g class="cartesianlayer"><g class="subplot xy"><g class="layer-subplot"><g class="shapelayer"/><g class="imagelayer"/></g><g class="minor-gridlayer"><g class="x"/><g class="y"/></g><g class="gridlayer"><g class="x"/><g class="y"/></g><g class="zerolinelayer"/><g class="layer-between"><g class="shapelayer"/><g class="imagelayer"/></g><path class="xlines-below"/><path class="ylines-below"/><g class="overlines-below"/><g class="xaxislayer-below"/><g class="yaxislayer-below"/><g class="overaxes-below"/><g class="overplot"><g class="xy" transform="translate(80,100)" clip-path="url(#clipb9dd34xyplot)"><g class="scatterlayer mlayer"><g class="trace scatter trace14a3d2" style="stroke-miterlimit: 2; opacity: 1;"><g class="fills"><g><path class="js-fill" d="M265.69,190.26L247.55,192.74L248,217.92L256.87,320.77L259.57,316.55L292.21,217.93Z" style="fill: rgb(68, 1, 84); fill-opacity: 0.3; stroke-width: 0;"/></g></g><g class="errorbars"/><g class="lines"><path class="js-line" d="M265.69,190.26L247.55,192.74L248,217.92L256.87,320.77L259.57,316.55L292.21,217.93" style="vector-effect: none; fill: none; stroke: rgb(68, 1, 84); stroke-opacity: 1; stroke-width: 0px; opacity: 1;"/></g><g class="points"><path class="point" transform="translate(265.69,190.26)" d="M4,0A4,4 0 1,1 0,-4A4,4 0 0,1 4,0Z" style="opacity: 0.6; stroke-width: 0px; fill: rgb(68, 1, 84); fill-opacity: 1;"/><path class="point" transform="translate(247.55,192.74)" d="M4,0A4,4 0 1,1 0,-4A4,4 0 0,1 4,0Z" style="opacity: 0.6; stroke-width: 0px; fill: rgb(68, 1, 84); fill-opacity: 1;"/><path class="point" transform="translate(248,217.92)" d="M4,0A4,4 0 1,1 0,-4A4,4 0 0,1 4,0Z" style="opacity: 0.6; stroke-width: 0px; fill: rgb(68, 1, 84); fill-opacity: 1;"/><path class="point" transform="translate(256.87,320.77)" d="M4,0A4,4 0 1,1 0,-4A4,4 0 0,1 4,0Z" style="opacity: 0.6; stroke-width: 0px; fill: rgb(68, 1, 84); fill-opacity: 1;"/><path class="point" transform="translate(259.57,316.55)" d="M4,0A4,4 0 1,1 0,-4A4,4 0 0,1 4,0Z" style="opacity: 0.6; stroke-width: 0px; fill: rgb(68, 1, 84); fill-opacity: 1;"/><path class="point" transform="translate(292.21,217.93)" d="M4,0A4,4 0 1,1 0,-4A4,4 0 0,1 4,0Z" style="opacity: 0.6; stroke-width: 0px; fill: rgb(68, 1, 84); fill-opacity: 1;"/></g><g class="text"/></g><g class="trace scatter trace7884ce" style="stroke-miterlimit: 2; opacity: 1;"><g class="fills"><g><path class="js-fill" d="M433.05,75.23L419.3,183.32L541.18,134.66L549.8,128.99Z" style="fill: rgb(72, 40, 120); fill-opacity: 0.3; stroke-width: 0;"/></g></g><g class="errorbars"/><g class="lines"><path class="js-line" d="M433.05,75.23L419.3,183.32L541.18,134.66L549.8,128.99" style="vector-effect: none; fill: none; stroke: rgb(72, 40, 120); stroke-opacity: 1; stroke-width: 0px; opacity: 1;"/></g><g class="points"><path class="point" transform="translate(433.05,75.23)" d="M4,0A4,4 0 1,1 0,-4A4,4 0 0,1 4,0Z" style="opacity: 0.6; stroke-width: 0px; fill: rgb(72, 40, 120); fill-opacity: 1;"/><path class="point" transform="translate(419.3,183.32)" d="M4,0A4,4 0 1,1 0,-4A4,4 0 0,1 4,0Z" style="opacity: 0.6; stroke-width: 0px; fill: rgb(72, 40, 120); fill-opacity: 1;"/><path class="point" transform="translate(541.18,134.66)" d="M4,0A4,4 0 1,1 0,-4A4,4 0 0,1 4,0Z" style="opacity: 0.6; stroke-width: 0px; fill: rgb(72, 40, 120); fill-opacity: 1;"/><path class="point" transform="translate(549.8,128.99)" d="M4,0A4,4 0 1,1 0,-4A4,4 0 0,1 4,0Z" style="opacity: 0.6; stroke-width: 0px; fill: rgb(72, 40, 120); fill-opacity: 1;"/></g><g class="text"/></g><g class="trace scatter tracec497f8" style="stroke-miterlimit: 2; opacity: 1;"><g class="fills"><g><path class="js-fill" d="M80.31,148.74L126.24,176.72L246.96,53.18L238.45,28.67L229.09,26L157.54,40.6L108.13,91.04L96.32,108.06Z" style="fill: rgb(62, 73, 137); fill-opacity: 0.3; stroke-width: 0;"/></g></g><g class="errorbars"/><g class="lines"><path class="js-line" d="M80.31,148.74L126.24,176.72L246.96,53.18L238.45,28.67L229.09,26L157.54,40.6L108.13,91.04L96.32,108.06" style="vector-effect: none; fill: none; stroke: rgb(62, 73, 137); stroke-opacity: 1; stroke-width: 0px; opacity: 1;"/></g><g class="points"><path class="point" transform="translate(80.31,148.74)" d="M4,0A4,4 0 1,1 0,-4A4,4 0 0,1 4,0Z" style="opacity: 0.6; stroke-width: 0px; fill: rgb(62, 73, 137); fill-opacity: 1;"/><path class="point" transform="translate(126.24,176.72)" d="M4,0A4,4 0 1,1 0,-4A4,4 0 0,1 4,0Z" style="opacity: 0.6; stroke-width: 0px; fill: rgb(62, 73, 137); fill-opacity: 1;"/><path class="point" transform="translate(246.96,53.18)" d="M4,0A4,4 0 1,1 0,-4A4,4 0 0,1 4,0Z" style="opacity: 0.6; stroke-width: 0px; fill: rgb(62, 73, 137); fill-opacity: 1;"/><path class="point" transform="translate(238.45,28.67)" d="M4,0A4,4 0 1,1 0,-4A4,4 0 0,1 4,0Z" style="opacity: 0.6; stroke-width: 0px; fill: rgb(62, 73, 137); fill-opacity: 1;"/><path class="point" transform="translate(229.09,26)" d="M4,0A4,4 0 1,1 0,-4A4,4 0 0,1 4,0Z" style="opacity: 0.6; stroke-width: 0px; fill: rgb(62, 73, 137); fill-opacity: 1;"/><path class="point" transform="translate(157.54,40.6)" d="M4,0A4,4 0 1,1 0,-4A4,4 0 0,1 4,0Z" style="opacity: 0.6; stroke-width: 0px; fill: rgb(62, 73, 137); fill-opacity: 1;"/><path class="point" transform="translate(108.13,91.04)" d="M4,0A4,4 0 1,1 0,-4A4,4 0 0,1 4,0Z" style="opacity: 0.6; stroke-width: 0px; fill: rgb(62, 73, 137); fill-opacity: 1;"/><path class="point" transform="translate(96.32,108.06)" d="M4,0A4,4 0 1,1 0,-4A4,4 0 0,1 4,0Z" style="opacity: 0.6; stroke-width: 0px; fill: rgb(62, 73, 137); fill-opacity: 1;"/></g><g class="text"/></g><g class="trace scatter traceeae24d" style="stroke-miterlimit: 2; opacity: 1;"><g class="fills"><g><path class="js-fill" d="M34.2,262.65L159.36,394L141.58,261.44L38.5,261.59Z" style="fill: rgb(49, 104, 142); fill-opacity: 0.3; stroke-width: 0;"/></g></g><g class="errorbars"/><g class="lines"><path class="js-line" d="M34.2,262.65L159.36,394L141.58,261.44L38.5,261.59" style="vector-effect: none; fill: none; stroke: rgb(49, 104, 142); stroke-opacity: 1; stroke-width: 0px; opacity: 1;"/></g><g class="points"><path class="point" transform="translate(34.2,262.65)" d="M4,0A4,4 0 1,1 0,-4A4,4 0 0,1 4,0Z" style="opacity: 0.6; stroke-width: 0px; fill: rgb(49, 104, 142); fill-opacity: 1;"/><path class="point" transform="translate(159.36,394)" d="M4,0A4,4 0 1,1 0,-4A4,4 0 0,1 4,0Z" style="opacity: 0.6; stroke-width: 0px; fill: rgb(49, 104, 142); fill-opacity: 1;"/><path class="point" transform="translate(141.58,261.44)" d="M4,0A4,4 0 1,1 0,-4A4,4 0 0,1 4,0Z" style="opacity: 0.6; stroke-width: 0px; fill: rgb(49, 104, 142); fill-opacity: 1;"/><path class="point" transform="translate(38.5,261.59)" d="M4,0A4,4 0 1,1 0,-4A4,4 0 0,1 4,0Z" style="opacity: 0.6; stroke-width: 0px; fill: rgb(49, 104, 142); fill-opacity: 1;"/></g><g class="text"/></g><g class="trace scatter trace5fb559" style="stroke-miterlimit: 2; opacity: 1;"><g class="fills"><g><path class="js-fill" d="M204.6,166.92L337.71,180.47L327.47,134.31L280.34,89.93Z" style="fill: rgb(38, 130, 142); fill-opacity: 0.3; stroke-width: 0;"/></g></g><g class="errorbars"/><g class="lines"><path class="js-line" d="M204.6,166.92L337.71,180.47L327.47,134.31L280.34,89.93" style="vector-effect: none; fill: none; stroke: rgb(38, 130, 142); stroke-opacity: 1; stroke-width: 0px; opacity: 1;"/></g><g class="points"><path class="point" transform="translate(204.6,166.92)" d="M4,0A4,4 0 1,1 0,-4A4,4 0 0,1 4,0Z" style="opacity: 0.6; stroke-width: 0px; fill: rgb(38, 130, 142); fill-opacity: 1;"/><path class="point" transform="translate(337.71,180.47)" d="M4,0A4,4 0 1,1 0,-4A4,4 0 0,1 4,0Z" style="opacity: 0.6; stroke-width: 0px; fill: rgb(38, 130, 142); fill-opacity: 1;"/><path class="point" transform="translate(327.47,134.31)" d="M4,0A4,4 0 1,1 0,-4A4,4 0 0,1 4,0Z" style="opacity: 0.6; stroke-width: 0px; fill: rgb(38, 130, 142); fill-opacity: 1;"/><path class="point" transform="translate(280.34,89.93)" d="M4,0A4,4 0 1,1 0,-4A4,4 0 0,1 4,0Z" style="opacity: 0.6; stroke-width: 0px; fill: rgb(38, 130, 142); fill-opacity: 1;"/></g><g class="text"/></g><g class="trace scatter tracea9c796" style="stroke-miterlimit: 2; opacity: 1;"><g class="fills"><g><path class="js-fill" d="M519.78,329.37L528.04,278.97L517.03,265.83L498.09,245.66L480.2,249.3L423.89,262.45L382.33,293.72L378.91,297.86L374.52,366.04L447.73,361.75Z" style="fill: rgb(31, 158, 137); fill-opacity: 0.3; stroke-width: 0;"/></g></g><g class="errorbars"/><g class="lines"><path class="js-line" d="M519.78,329.37L528.04,278.97L517.03,265.83L498.09,245.66L480.2,249.3L423.89,262.45L382.33,293.72L378.91,297.86L374.52,366.04L447.73,361.75" style="vector-effect: none; fill: none; stroke: rgb(31, 158, 137); stroke-opacity: 1; stroke-width: 0px; opacity: 1;"/></g><g class="points"><path class="point" transform="translate(519.78,329.37)" d="M4,0A4,4 0 1,1 0,-4A4,4 0 0,1 4,0Z" style="opacity: 0.6; stroke-width: 0px; fill: rgb(31, 158, 137); fill-opacity: 1;"/><path class="point" transform="translate(528.04,278.97)" d="M4,0A4,4 0 1,1 0,-4A4,4 0 0,1 4,0Z" style="opacity: 0.6; stroke-width: 0px; fill: rgb(31, 158, 137); fill-opacity: 1;"/><path class="point" transform="translate(517.03,265.83)" d="M4,0A4,4 0 1,1 0,-4A4,4 0 0,1 4,0Z" style="opacity: 0.6; stroke-width: 0px; fill: rgb(31, 158, 137); fill-opacity: 1;"/><path class="point" transform="translate(498.09,245.66)" d="M4,0A4,4 0 1,1 0,-4A4,4 0 0,1 4,0Z" style="opacity: 0.6; stroke-width: 0px; fill: rgb(31, 158, 137); fill-opacity: 1;"/><path class="point" transform="translate(480.2,249.3)" d="M4,0A4,4 0 1,1 0,-4A4,4 0 0,1 4,0Z" style="opacity: 0.6; stroke-width: 0px; fill: rgb(31, 158, 137); fill-opacity: 1;"/><path class="point" transform="translate(423.89,262.45)" d="M4,0A4,4 0 1,1 0,-4A4,4 0 0,1 4,0Z" style="opacity: 0.6; stroke-width: 0px; fill: rgb(31, 158, 137); fill-opacity: 1;"/><path class="point" transform="translate(382.33,293.72)" d="M4,0A4,4 0 1,1 0,-4A4,4 0 0,1 4,0Z" style="opacity: 0.6; stroke-width: 0px; fill: rgb(31, 158, 137); fill-opacity: 1;"/><path class="point" transform="translate(378.91,297.86)" d="M4,0A4,4 0 1,1 0,-4A4,4 0 0,1 4,0Z" style="opacity: 0.6; stroke-width: 0px; fill: rgb(31, 158, 137); fill-opacity: 1;"/><path class="point" transform="translate(374.52,366.04)" d="M4,0A4,4 0 1,1 0,-4A4,4 0 0,1 4,0Z" style="opacity: 0.6; stroke-width: 0px; fill: rgb(31, 158, 137); fill-opacity: 1;"/><path class="point" transform="translate(447.73,361.75)" d="M4,0A4,4 0 1,1 0,-4A4,4 0 0,1 4,0Z" style="opacity: 0.6; stroke-width: 0px; fill: rgb(31, 158, 137); fill-opacity: 1;"/></g><g class="text"/></g><g class="trace scatter trace651bb2" style="stroke-miterlimit: 2; opacity: 1;"><g class="fills"/><g class="errorbars"/><g class="lines"/><g class="points"><path class="point" transform="translate(322.26,135.87)" d="M4,0A4,4 0 1,1 0,-4A4,4 0 0,1 4,0Z" style="opacity: 0.6; stroke-width: 0px; fill: rgb(38, 130, 142); fill-opacity: 1;"/><path class="point" transform="translate(156.44,390.25)" d="M4,0A4,4 0 1,1 0,-4A4,4 0 0,1 4,0Z" style="opacity: 0.6; stroke-width: 0px; fill: rgb(49, 104, 142); fill-opacity: 1;"/><path class="point" transform="translate(126.24,176.72)" d="M4,0A4,4 0 1,1 0,-4A4,4 0 0,1 4,0Z" style="opacity: 0.6; stroke-width: 0px; fill: rgb(62, 73, 137); fill-opacity: 1;"/><path class="point" transform="translate(80.31,148.74)" d="M4,0A4,4 0 1,1 0,-4A4,4 0 0,1 4,0Z" style="opacity: 0.6; stroke-width: 0px; fill: rgb(62, 73, 137); fill-opacity: 1;"/><path class="point" transform="translate(434.57,76.08)" d="M4,0A4,4 0 1,1 0,-4A4,4 0 0,1 4,0Z" style="opacity: 0.6; stroke-width: 0px; fill: rgb(72, 40, 120); fill-opacity: 1;"/><path class="point" transform="translate(433.05,75.23)" d="M4,0A4,4 0 1,1 0,-4A4,4 0 0,1 4,0Z" style="opacity: 0.6; stroke-width: 0px; fill: rgb(72, 40, 120); fill-opacity: 1;"/><path class="point" transform="translate(327.47,134.31)" d="M4,0A4,4 0 1,1 0,-4A4,4 0 0,1 4,0Z" style="opacity: 0.6; stroke-width: 0px; fill: rgb(38, 130, 142); fill-opacity: 1;"/><path class="point" transform="translate(256.87,320.77)" d="M4,0A4,4 0 1,1 0,-4A4,4 0 0,1 4,0Z" style="opacity: 0.6; stroke-width: 0px; fill: rgb(68, 1, 84); fill-opacity: 1;"/><path class="point" transform="translate(259.57,316.55)" d="M4,0A4,4 0 1,1 0,-4A4,4 0 0,1 4,0Z" style="opacity: 0.6; stroke-width: 0px; fill: rgb(68, 1, 84); fill-opacity: 1;"/><path class="point" transform="translate(258.92,314.57)" d="M4,0A4,4 0 1,1 0,-4A4,4 0 0,1 4,0Z" style="opacity: 0.6; stroke-width: 0px; fill: rgb(68, 1, 84); fill-opacity: 1;"/><path class="point" transform="translate(204.6,166.92)" d="M4,0A4,4 0 1,1 0,-4A4,4 0 0,1 4,0Z" style="opacity: 0.6; stroke-width: 0px; fill: rgb(38, 130, 142); fill-opacity: 1;"/><path class="point" transform="translate(157.54,40.6)" d="M4,0A4,4 0 1,1 0,-4A4,4 0 0,1 4,0Z" style="opacity: 0.6; stroke-width: 0px; fill: rgb(62, 73, 137); fill-opacity: 1;"/><path class="point" transform="translate(246.96,53.18)" d="M4,0A4,4 0 1,1 0,-4A4,4 0 0,1 4,0Z" style="opacity: 0.6; stroke-width: 0px; fill: rgb(62, 73, 137); fill-opacity: 1;"/><path class="point" transform="translate(208.18,64.23)" d="M4,0A4,4 0 1,1 0,-4A4,4 0 0,1 4,0Z" style="opacity: 0.6; stroke-width: 0px; fill: rgb(62, 73, 137); fill-opacity: 1;"/><path class="point" transform="translate(238.45,28.67)" d="M4,0A4,4 0 1,1 0,-4A4,4 0 0,1 4,0Z" style="opacity: 0.6; stroke-width: 0px; fill: rgb(62, 73, 137); fill-opacity: 1;"/><path class="point" transform="translate(229.09,26)" d="M4,0A4,4 0 1,1 0,-4A4,4 0 0,1 4,0Z" style="opacity: 0.6; stroke-width: 0px; fill: rgb(62, 73, 137); fill-opacity: 1;"/><path class="point" transform="translate(176.08,43.09)" d="M4,0A4,4 0 1,1 0,-4A4,4 0 0,1 4,0Z" style="opacity: 0.6; stroke-width: 0px; fill: rgb(62, 73, 137); fill-opacity: 1;"/><path class="point" transform="translate(96.32,108.06)" d="M4,0A4,4 0 1,1 0,-4A4,4 0 0,1 4,0Z" style="opacity: 0.6; stroke-width: 0px; fill: rgb(62, 73, 137); fill-opacity: 1;"/><path class="point" transform="translate(97.54,107.45)" d="M4,0A4,4 0 1,1 0,-4A4,4 0 0,1 4,0Z" style="opacity: 0.6; stroke-width: 0px; fill: rgb(62, 73, 137); fill-opacity: 1;"/><path class="point" transform="translate(108.13,91.04)" d="M4,0A4,4 0 1,1 0,-4A4,4 0 0,1 4,0Z" style="opacity: 0.6; stroke-width: 0px; fill: rgb(62, 73, 137); fill-opacity: 1;"/><path class="point" transform="translate(34.2,262.65)" d="M4,0A4,4 0 1,1 0,-4A4,4 0 0,1 4,0Z" style="opacity: 0.6; stroke-width: 0px; fill: rgb(49, 104, 142); fill-opacity: 1;"/><path class="point" transform="translate(38.5,261.59)" d="M4,0A4,4 0 1,1 0,-4A4,4 0 0,1 4,0Z" style="opacity: 0.6; stroke-width: 0px; fill: rgb(49, 104, 142); fill-opacity: 1;"/><path class="point" transform="translate(430.08,178.75)" d="M4,0A4,4 0 1,1 0,-4A4,4 0 0,1 4,0Z" style="opacity: 0.6; stroke-width: 0px; fill: rgb(72, 40, 120); fill-opacity: 1;"/><path class="point" transform="translate(419.3,183.32)" d="M4,0A4,4 0 1,1 0,-4A4,4 0 0,1 4,0Z" style="opacity: 0.6; stroke-width: 0px; fill: rgb(72, 40, 120); fill-opacity: 1;"/><path class="point" transform="translate(292.21,217.93)" d="M4,0A4,4 0 1,1 0,-4A4,4 0 0,1 4,0Z" style="opacity: 0.6; stroke-width: 0px; fill: rgb(68, 1, 84); fill-opacity: 1;"/><path class="point" transform="translate(262.33,193.57)" d="M4,0A4,4 0 1,1 0,-4A4,4 0 0,1 4,0Z" style="opacity: 0.6; stroke-width: 0px; fill: rgb(68, 1, 84); fill-opacity: 1;"/><path class="point" transform="translate(262.82,235.21)" d="M4,0A4,4 0 1,1 0,-4A4,4 0 0,1 4,0Z" style="opacity: 0.6; stroke-width: 0px; fill: rgb(68, 1, 84); fill-opacity: 1;"/><path class="point" transform="translate(247.55,192.74)" d="M4,0A4,4 0 1,1 0,-4A4,4 0 0,1 4,0Z" style="opacity: 0.6; stroke-width: 0px; fill: rgb(68, 1, 84); fill-opacity: 1;"/><path class="point" transform="translate(265.69,190.26)" d="M4,0A4,4 0 1,1 0,-4A4,4 0 0,1 4,0Z" style="opacity: 0.6; stroke-width: 0px; fill: rgb(68, 1, 84); fill-opacity: 1;"/><path class="point" transform="translate(248,217.92)" d="M4,0A4,4 0 1,1 0,-4A4,4 0 0,1 4,0Z" style="opacity: 0.6; stroke-width: 0px; fill: rgb(68, 1, 84); fill-opacity: 1;"/><path class="point" transform="translate(268.37,241.4)" d="M4,0A4,4 0 1,1 0,-4A4,4 0 0,1 4,0Z" style="opacity: 0.6; stroke-width: 0px; fill: rgb(68, 1, 84); fill-opacity: 1;"/><path class="point" transform="translate(159.36,394)" d="M4,0A4,4 0 1,1 0,-4A4,4 0 0,1 4,0Z" style="opacity: 0.6; stroke-width: 0px; fill: rgb(49, 104, 142); fill-opacity: 1;"/><path class="point" transform="translate(532.53,127.78)" d="M4,0A4,4 0 1,1 0,-4A4,4 0 0,1 4,0Z" style="opacity: 0.6; stroke-width: 0px; fill: rgb(72, 40, 120); fill-opacity: 1;"/><path class="point" transform="translate(541.18,134.66)" d="M4,0A4,4 0 1,1 0,-4A4,4 0 0,1 4,0Z" style="opacity: 0.6; stroke-width: 0px; fill: rgb(72, 40, 120); fill-opacity: 1;"/><path class="point" transform="translate(549.8,128.99)" d="M4,0A4,4 0 1,1 0,-4A4,4 0 0,1 4,0Z" style="opacity: 0.6; stroke-width: 0px; fill: rgb(72, 40, 120); fill-opacity: 1;"/><path class="point" transform="translate(532.29,129.25)" d="M4,0A4,4 0 1,1 0,-4A4,4 0 0,1 4,0Z" style="opacity: 0.6; stroke-width: 0px; fill: rgb(72, 40, 120); fill-opacity: 1;"/><path class="point" transform="translate(409,328.16)" d="M4,0A4,4 0 1,1 0,-4A4,4 0 0,1 4,0Z" style="opacity: 0.6; stroke-width: 0px; fill: rgb(31, 158, 137); fill-opacity: 1;"/><path class="point" transform="translate(517.03,265.83)" d="M4,0A4,4 0 1,1 0,-4A4,4 0 0,1 4,0Z" style="opacity: 0.6; stroke-width: 0px; fill: rgb(31, 158, 137); fill-opacity: 1;"/><path class="point" transform="translate(498.09,245.66)" d="M4,0A4,4 0 1,1 0,-4A4,4 0 0,1 4,0Z" style="opacity: 0.6; stroke-width: 0px; fill: rgb(31, 158, 137); fill-opacity: 1;"/><path class="point" transform="translate(528.04,278.97)" d="M4,0A4,4 0 1,1 0,-4A4,4 0 0,1 4,0Z" style="opacity: 0.6; stroke-width: 0px; fill: rgb(31, 158, 137); fill-opacity: 1;"/><path class="point" transform="translate(374.52,366.04)" d="M4,0A4,4 0 1,1 0,-4A4,4 0 0,1 4,0Z" style="opacity: 0.6; stroke-width: 0px; fill: rgb(31, 158, 137); fill-opacity: 1;"/><path class="point" transform="translate(399.4,319.91)" d="M4,0A4,4 0 1,1 0,-4A4,4 0 0,1 4,0Z" style="opacity: 0.6; stroke-width: 0px; fill: rgb(31, 158, 137); fill-opacity: 1;"/><path class="point" transform="translate(378.91,297.86)" d="M4,0A4,4 0 1,1 0,-4A4,4 0 0,1 4,0Z" style="opacity: 0.6; stroke-width: 0px; fill: rgb(31, 158, 137); fill-opacity: 1;"/><path class="point" transform="translate(495.62,267.23)" d="M4,0A4,4 0 1,1 0,-4A4,4 0 0,1 4,0Z" style="opacity: 0.6; stroke-width: 0px; fill: rgb(31, 158, 137); fill-opacity: 1;"/><path class="point" transform="translate(480.2,249.3)" d="M4,0A4,4 0 1,1 0,-4A4,4 0 0,1 4,0Z" style="opacity: 0.6; stroke-width: 0px; fill: rgb(31, 158, 137); fill-opacity: 1;"/><path class="point" transform="translate(382.33,293.72)" d="M4,0A4,4 0 1,1 0,-4A4,4 0 0,1 4,0Z" style="opacity: 0.6; stroke-width: 0px; fill: rgb(31, 158, 137); fill-opacity: 1;"/><path class="point" transform="translate(447.73,361.75)" d="M4,0A4,4 0 1,1 0,-4A4,4 0 0,1 4,0Z" style="opacity: 0.6; stroke-width: 0px; fill: rgb(31, 158, 137); fill-opacity: 1;"/><path class="point" transform="translate(488.73,318.16)" d="M4,0A4,4 0 1,1 0,-4A4,4 0 0,1 4,0Z" style="opacity: 0.6; stroke-width: 0px; fill: rgb(31, 158, 137); fill-opacity: 1;"/><path class="point" transform="translate(461.13,306.36)" d="M4,0A4,4 0 1,1 0,-4A4,4 0 0,1 4,0Z" style="opacity: 0.6; stroke-width: 0px; fill: rgb(31, 158, 137); fill-opacity: 1;"/><path class="point" transform="translate(423.89,262.45)" d="M4,0A4,4 0 1,1 0,-4A4,4 0 0,1 4,0Z" style="opacity: 0.6; stroke-width: 0px; fill: rgb(31, 158, 137); fill-opacity: 1;"/><path class="point" transform="translate(519.78,329.37)" d="M4,0A4,4 0 1,1 0,-4A4,4 0 0,1 4,0Z" style="opacity: 0.6; stroke-width: 0px; fill: rgb(31, 158, 137); fill-opacity: 1;"/><path class="point" transform="translate(280.34,89.93)" d="M4,0A4,4 0 1,1 0,-4A4,4 0 0,1 4,0Z" style="opacity: 0.6; stroke-width: 0px; fill: rgb(38, 130, 142); fill-opacity: 1;"/><path class="point" transform="translate(337.71,180.47)" d="M4,0A4,4 0 1,1 0,-4A4,4 0 0,1 4,0Z" style="opacity: 0.6; stroke-width: 0px; fill: rgb(38, 130, 142); fill-opacity: 1;"/><path class="point" transform="translate(138.08,261.47)" d="M4,0A4,4 0 1,1 0,-4A4,4 0 0,1 4,0Z" style="opacity: 0.6; stroke-width: 0px; fill: rgb(49, 104, 142); fill-opacity: 1;"/><path class="point" transform="translate(141.58,261.44)" d="M4,0A4,4 0 1,1 0,-4A4,4 0 0,1 4,0Z" style="opacity: 0.6; stroke-width: 0px; fill: rgb(49, 104, 142); fill-opacity: 1;"/><path class="point" transform="translate(135.37,264.89)" d="M4,0A4,4 0 1,1 0,-4A4,4 0 0,1 4,0Z" style="opacity: 0.6; stroke-width: 0px; fill: rgb(49, 104, 142); fill-opacity: 1;"/><path class="point" transform="translate(138.69,371.65)" d="M4,0A4,4 0 1,1 0,-4A4,4 0 0,1 4,0Z" style="opacity: 0.6; stroke-width: 0px; fill: rgb(49, 104, 142); fill-opacity: 1;"/></g><g class="text"><g class="textpoint" transform="translate(0,15)"><text x="322.26" y="135.87" text-anchor="middle" style="font-family: 'Open Sans', verdana, arial, sans-serif; font-size: 12px; fill: rgb(42, 63, 95); fill-opacity: 1; white-space: pre;">AlphaFold2</text></g><g class="textpoint" transform="translate(0,15)"><text x="156.44" y="390.25" text-anchor="middle" style="font-family: 'Open Sans', verdana, arial, sans-serif; font-size: 12px; fill: rgb(42, 63, 95); fill-opacity: 1; white-space: pre;">BioRxiv</text></g><g class="textpoint" transform="translate(0,15)"><text x="126.24" y="176.72" text-anchor="middle" style="font-family: 'Open Sans', verdana, arial, sans-serif; font-size: 12px; fill: rgb(42, 63, 95); fill-opacity: 1; white-space: pre;">Blast</text></g><g class="textpoint" transform="translate(0,15)"><text x="80.31" y="148.74" text-anchor="middle" style="font-family: 'Open Sans', verdana, arial, sans-serif; font-size: 12px; fill: rgb(42, 63, 95); fill-opacity: 1; white-space: pre;">ClustalW</text></g><g class="textpoint" transform="translate(0,15)"><text x="434.57" y="76.08" text-anchor="middle" style="font-family: 'Open Sans', verdana, arial, sans-serif; font-size: 12px; fill: rgb(42, 63, 95); fill-opacity: 1; white-space: pre;">Diffab</text></g><g class="textpoint" transform="translate(0,15)"><text x="433.05" y="75.23" text-anchor="middle" style="font-family: 'Open Sans', verdana, arial, sans-serif; font-size: 12px; fill: rgb(42, 63, 95); fill-opacity: 1; white-space: pre;">Diffab</text></g><g class="textpoint" transform="translate(0,15)"><text x="327.47" y="134.31" text-anchor="middle" style="font-family: 'Open Sans', verdana, arial, sans-serif; font-size: 12px; fill: rgb(42, 63, 95); fill-opacity: 1; white-space: pre;">ESMFold</text></g><g class="textpoint" transform="translate(0,15)"><text x="256.87" y="320.77" text-anchor="middle" style="font-family: 'Open Sans', verdana, arial, sans-serif; font-size: 12px; fill: rgb(42, 63, 95); fill-opacity: 1; white-space: pre;">Evolla</text></g><g class="textpoint" transform="translate(0,15)"><text x="259.57" y="316.55" text-anchor="middle" style="font-family: 'Open Sans', verdana, arial, sans-serif; font-size: 12px; fill: rgb(42, 63, 95); fill-opacity: 1; white-space: pre;">Evolla</text></g><g class="textpoint" transform="translate(0,15)"><text x="258.92" y="314.57" text-anchor="middle" style="font-family: 'Open Sans', verdana, arial, sans-serif; font-size: 12px; fill: rgb(42, 63, 95); fill-opacity: 1; white-space: pre;">Evolla</text></g><g class="textpoint" transform="translate(0,15)"><text x="204.6" y="166.92" text-anchor="middle" style="font-family: 'Open Sans', verdana, arial, sans-serif; font-size: 12px; fill: rgb(42, 63, 95); fill-opacity: 1; white-space: pre;">FoldSeek</text></g><g class="textpoint" transform="translate(0,15)"><text x="157.54" y="40.6" text-anchor="middle" style="font-family: 'Open Sans', verdana, arial, sans-serif; font-size: 12px; fill: rgb(42, 63, 95); fill-opacity: 1; white-space: pre;">HMMSearch</text></g><g class="textpoint" transform="translate(0,15)"><text x="246.96" y="53.18" text-anchor="middle" style="font-family: 'Open Sans', verdana, arial, sans-serif; font-size: 12px; fill: rgb(42, 63, 95); fill-opacity: 1; white-space: pre;">HHAlgin</text></g><g class="textpoint" transform="translate(0,15)"><text x="208.18" y="64.23" text-anchor="middle" style="font-family: 'Open Sans', verdana, arial, sans-serif; font-size: 12px; fill: rgb(42, 63, 95); fill-opacity: 1; white-space: pre;">HHBlits</text></g><g class="textpoint" transform="translate(0,15)"><text x="238.45" y="28.67" text-anchor="middle" style="font-family: 'Open Sans', verdana, arial, sans-serif; font-size: 12px; fill: rgb(42, 63, 95); fill-opacity: 1; white-space: pre;">HHFilter</text></g><g class="textpoint" transform="translate(0,15)"><text x="229.09" y="26" text-anchor="middle" style="font-family: 'Open Sans', verdana, arial, sans-serif; font-size: 12px; fill: rgb(42, 63, 95); fill-opacity: 1; white-space: pre;">HHMake</text></g><g class="textpoint" transform="translate(0,15)"><text x="176.08" y="43.09" text-anchor="middle" style="font-family: 'Open Sans', verdana, arial, sans-serif; font-size: 12px; fill: rgb(42, 63, 95); fill-opacity: 1; white-space: pre;">HHSearch</text></g><g class="textpoint" transform="translate(0,15)"><text x="96.32" y="108.06" text-anchor="middle" style="font-family: 'Open Sans', verdana, arial, sans-serif; font-size: 12px; fill: rgb(42, 63, 95); fill-opacity: 1; white-space: pre;">MMseqs</text></g><g class="textpoint" transform="translate(0,15)"><text x="97.54" y="107.45" text-anchor="middle" style="font-family: 'Open Sans', verdana, arial, sans-serif; font-size: 12px; fill: rgb(42, 63, 95); fill-opacity: 1; white-space: pre;">MMseqs</text></g><g class="textpoint" transform="translate(0,15)"><text x="108.13" y="91.04" text-anchor="middle" style="font-family: 'Open Sans', verdana, arial, sans-serif; font-size: 12px; fill: rgb(42, 63, 95); fill-opacity: 1; white-space: pre;">MMseqs</text></g><g class="textpoint" transform="translate(0,15)"><text x="34.2" y="262.65" text-anchor="middle" style="font-family: 'Open Sans', verdana, arial, sans-serif; font-size: 12px; fill: rgb(42, 63, 95); fill-opacity: 1; white-space: pre;">Pfam</text></g><g class="textpoint" transform="translate(0,15)"><text x="38.5" y="261.59" text-anchor="middle" style="font-family: 'Open Sans', verdana, arial, sans-serif; font-size: 12px; fill: rgb(42, 63, 95); fill-opacity: 1; white-space: pre;">Pfam</text></g><g class="textpoint" transform="translate(0,15)"><text x="430.08" y="178.75" text-anchor="middle" style="font-family: 'Open Sans', verdana, arial, sans-serif; font-size: 12px; fill: rgb(42, 63, 95); fill-opacity: 1; white-space: pre;">Pinal</text></g><g class="textpoint" transform="translate(0,15)"><text x="419.3" y="183.32" text-anchor="middle" style="font-family: 'Open Sans', verdana, arial, sans-serif; font-size: 12px; fill: rgb(42, 63, 95); fill-opacity: 1; white-space: pre;">ProteinMPNN</text></g><g class="textpoint" transform="translate(0,15)"><text x="292.21" y="217.93" text-anchor="middle" style="font-family: 'Open Sans', verdana, arial, sans-serif; font-size: 12px; fill: rgb(42, 63, 95); fill-opacity: 1; white-space: pre;">ProTrek</text></g><g class="textpoint" transform="translate(0,15)"><text x="262.33" y="193.57" text-anchor="middle" style="font-family: 'Open Sans', verdana, arial, sans-serif; font-size: 12px; fill: rgb(42, 63, 95); fill-opacity: 1; white-space: pre;">ProTrek</text></g><g class="textpoint" transform="translate(0,15)"><text x="262.82" y="235.21" text-anchor="middle" style="font-family: 'Open Sans', verdana, arial, sans-serif; font-size: 12px; fill: rgb(42, 63, 95); fill-opacity: 1; white-space: pre;">ProTrek</text></g><g class="textpoint" transform="translate(0,15)"><text x="247.55" y="192.74" text-anchor="middle" style="font-family: 'Open Sans', verdana, arial, sans-serif; font-size: 12px; fill: rgb(42, 63, 95); fill-opacity: 1; white-space: pre;">ProTrek</text></g><g class="textpoint" transform="translate(0,15)"><text x="265.69" y="190.26" text-anchor="middle" style="font-family: 'Open Sans', verdana, arial, sans-serif; font-size: 12px; fill: rgb(42, 63, 95); fill-opacity: 1; white-space: pre;">ProTrek</text></g><g class="textpoint" transform="translate(0,15)"><text x="248" y="217.92" text-anchor="middle" style="font-family: 'Open Sans', verdana, arial, sans-serif; font-size: 12px; fill: rgb(42, 63, 95); fill-opacity: 1; white-space: pre;">ProTrek</text></g><g class="textpoint" transform="translate(0,15)"><text x="268.37" y="241.4" text-anchor="middle" style="font-family: 'Open Sans', verdana, arial, sans-serif; font-size: 12px; fill: rgb(42, 63, 95); fill-opacity: 1; white-space: pre;">ProTrek</text></g><g class="textpoint" transform="translate(0,15)"><text x="159.36" y="394" text-anchor="middle" style="font-family: 'Open Sans', verdana, arial, sans-serif; font-size: 12px; fill: rgb(42, 63, 95); fill-opacity: 1; white-space: pre;">PubMed</text></g><g class="textpoint" transform="translate(0,15)"><text x="532.53" y="127.78" text-anchor="middle" style="font-family: 'Open Sans', verdana, arial, sans-serif; font-size: 12px; fill: rgb(42, 63, 95); fill-opacity: 1; white-space: pre;">RFDiffusion</text></g><g class="textpoint" transform="translate(0,15)"><text x="541.18" y="134.66" text-anchor="middle" style="font-family: 'Open Sans', verdana, arial, sans-serif; font-size: 12px; fill: rgb(42, 63, 95); fill-opacity: 1; white-space: pre;">RFDiffusion</text></g><g class="textpoint" transform="translate(0,15)"><text x="549.8" y="128.99" text-anchor="middle" style="font-family: 'Open Sans', verdana, arial, sans-serif; font-size: 12px; fill: rgb(42, 63, 95); fill-opacity: 1; white-space: pre;">RFDiffusion</text></g><g class="textpoint" transform="translate(0,15)"><text x="532.29" y="129.25" text-anchor="middle" style="font-family: 'Open Sans', verdana, arial, sans-serif; font-size: 12px; fill: rgb(42, 63, 95); fill-opacity: 1; white-space: pre;">RFDiffusion</text></g><g class="textpoint" transform="translate(0,15)"><text x="409" y="328.16" text-anchor="middle" style="font-family: 'Open Sans', verdana, arial, sans-serif; font-size: 12px; fill: rgb(42, 63, 95); fill-opacity: 1; white-space: pre;">SaProt</text></g><g class="textpoint" transform="translate(0,15)"><text x="517.03" y="265.83" text-anchor="middle" style="font-family: 'Open Sans', verdana, arial, sans-serif; font-size: 12px; fill: rgb(42, 63, 95); fill-opacity: 1; white-space: pre;">SaProt</text></g><g class="textpoint" transform="translate(0,15)"><text x="498.09" y="245.66" text-anchor="middle" style="font-family: 'Open Sans', verdana, arial, sans-serif; font-size: 12px; fill: rgb(42, 63, 95); fill-opacity: 1; white-space: pre;">SaProt</text></g><g class="textpoint" transform="translate(0,15)"><text x="528.04" y="278.97" text-anchor="middle" style="font-family: 'Open Sans', verdana, arial, sans-serif; font-size: 12px; fill: rgb(42, 63, 95); fill-opacity: 1; white-space: pre;">SaProt</text></g><g class="textpoint" transform="translate(0,15)"><text x="374.52" y="366.04" text-anchor="middle" style="font-family: 'Open Sans', verdana, arial, sans-serif; font-size: 12px; fill: rgb(42, 63, 95); fill-opacity: 1; white-space: pre;">SaProt</text></g><g class="textpoint" transform="translate(0,15)"><text x="399.4" y="319.91" text-anchor="middle" style="font-family: 'Open Sans', verdana, arial, sans-serif; font-size: 12px; fill: rgb(42, 63, 95); fill-opacity: 1; white-space: pre;">SaProt</text></g><g class="textpoint" transform="translate(0,15)"><text x="378.91" y="297.86" text-anchor="middle" style="font-family: 'Open Sans', verdana, arial, sans-serif; font-size: 12px; fill: rgb(42, 63, 95); fill-opacity: 1; white-space: pre;">SaProt</text></g><g class="textpoint" transform="translate(0,15)"><text x="495.62" y="267.23" text-anchor="middle" style="font-family: 'Open Sans', verdana, arial, sans-serif; font-size: 12px; fill: rgb(42, 63, 95); fill-opacity: 1; white-space: pre;">SaProt</text></g><g class="textpoint" transform="translate(0,15)"><text x="480.2" y="249.3" text-anchor="middle" style="font-family: 'Open Sans', verdana, arial, sans-serif; font-size: 12px; fill: rgb(42, 63, 95); fill-opacity: 1; white-space: pre;">SaProt</text></g><g class="textpoint" transform="translate(0,15)"><text x="382.33" y="293.72" text-anchor="middle" style="font-family: 'Open Sans', verdana, arial, sans-serif; font-size: 12px; fill: rgb(42, 63, 95); fill-opacity: 1; white-space: pre;">SaProt</text></g><g class="textpoint" transform="translate(0,15)"><text x="447.73" y="361.75" text-anchor="middle" style="font-family: 'Open Sans', verdana, arial, sans-serif; font-size: 12px; fill: rgb(42, 63, 95); fill-opacity: 1; white-space: pre;">SaProt</text></g><g class="textpoint" transform="translate(0,15)"><text x="488.73" y="318.16" text-anchor="middle" style="font-family: 'Open Sans', verdana, arial, sans-serif; font-size: 12px; fill: rgb(42, 63, 95); fill-opacity: 1; white-space: pre;">SaProt</text></g><g class="textpoint" transform="translate(0,15)"><text x="461.13" y="306.36" text-anchor="middle" style="font-family: 'Open Sans', verdana, arial, sans-serif; font-size: 12px; fill: rgb(42, 63, 95); fill-opacity: 1; white-space: pre;">SaProt</text></g><g class="textpoint" transform="translate(0,15)"><text x="423.89" y="262.45" text-anchor="middle" style="font-family: 'Open Sans', verdana, arial, sans-serif; font-size: 12px; fill: rgb(42, 63, 95); fill-opacity: 1; white-space: pre;">SaProt</text></g><g class="textpoint" transform="translate(0,15)"><text x="519.78" y="329.37" text-anchor="middle" style="font-family: 'Open Sans', verdana, arial, sans-serif; font-size: 12px; fill: rgb(42, 63, 95); fill-opacity: 1; white-space: pre;">SaProt</text></g><g class="textpoint" transform="translate(0,15)"><text x="280.34" y="89.93" text-anchor="middle" style="font-family: 'Open Sans', verdana, arial, sans-serif; font-size: 12px; fill: rgb(42, 63, 95); fill-opacity: 1; white-space: pre;">TMAlign</text></g><g class="textpoint" transform="translate(0,15)"><text x="337.71" y="180.47" text-anchor="middle" style="font-family: 'Open Sans', verdana, arial, sans-serif; font-size: 12px; fill: rgb(42, 63, 95); fill-opacity: 1; white-space: pre;">Umol</text></g><g class="textpoint" transform="translate(0,15)"><text x="138.08" y="261.47" text-anchor="middle" style="font-family: 'Open Sans', verdana, arial, sans-serif; font-size: 12px; fill: rgb(42, 63, 95); fill-opacity: 1; white-space: pre;">UniProt</text></g><g class="textpoint" transform="translate(0,15)"><text x="141.58" y="261.44" text-anchor="middle" style="font-family: 'Open Sans', verdana, arial, sans-serif; font-size: 12px; fill: rgb(42, 63, 95); fill-opacity: 1; white-space: pre;">UniProt</text></g><g class="textpoint" transform="translate(0,15)"><text x="135.37" y="264.89" text-anchor="middle" style="font-family: 'Open Sans', verdana, arial, sans-serif; font-size: 12px; fill: rgb(42, 63, 95); fill-opacity: 1; white-space: pre;">UniProt</text></g><g class="textpoint" transform="translate(0,15)"><text x="138.69" y="371.65" text-anchor="middle" style="font-family: 'Open Sans', verdana, arial, sans-serif; font-size: 12px; fill: rgb(42, 63, 95); fill-opacity: 1; white-space: pre;">wikipedia</text></g></g></g></g></g></g><path class="xlines-above crisp" d="M0,0" style="fill: none;"/><path class="ylines-above crisp" d="M0,0" style="fill: none;"/><g class="overlines-above"/><g class="xaxislayer-above"/><g class="yaxislayer-above"/><g class="overaxes-above"/></g></g><g class="polarlayer"/><g class="smithlayer"/><g class="ternarylayer"/><g class="geolayer"/><g class="funnelarealayer"/><g class="pielayer"/><g class="iciclelayer"/><g class="treemaplayer"/><g class="sunburstlayer"/><g class="glimages"/><defs id="topdefs-b9dd34"><g class="clips"/><clipPath id="legendb9dd34"><rect width="112" height="124" x="0" y="0"/></clipPath></defs><g class="layer-above"><g class="imagelayer"/><g class="shapelayer"/></g><g class="infolayer"><g class="legend" pointer-events="all" transform="translate(675.6800000000001,100)"><rect class="bg" shape-rendering="crispEdges" width="112" height="124" x="0" y="0" style="stroke: rgb(68, 68, 68); stroke-opacity: 1; fill: rgb(0, 0, 0); fill-opacity: 0; stroke-width: 0px;"/><g class="scrollbox" transform="" clip-path="url(#legendb9dd34)"><g class="groups"><g class="traces" transform="translate(0,14.5)" style="opacity: 1;"><text class="legendtext" text-anchor="start" x="40" y="4.680000000000001" style="font-family: 'Open Sans', verdana, arial, sans-serif; font-size: 12px; fill: rgb(42, 63, 95); fill-opacity: 1; white-space: pre;">Multimodal</text><g class="layers" style="opacity: 1;"><g class="legendfill"><path class="js-fill" d="M5,0h30v6h-30z" style="stroke-width: 0; fill: rgb(68, 1, 84); fill-opacity: 0.3;"/></g><g class="legendlines"><path class="js-line" d="M5,0h30" style="fill: none; stroke: rgb(68, 1, 84); stroke-opacity: 1; stroke-width: 0px;"/></g><g class="legendsymbols"><g class="legendpoints"><path class="scatterpts" transform="translate(20,0)" d="M4,0A4,4 0 1,1 0,-4A4,4 0 0,1 4,0Z" style="opacity: 0.6; stroke-width: 0px; fill: rgb(68, 1, 84); fill-opacity: 1;"/></g></g></g><rect class="legendtoggle" x="0" y="-9.5" width="106.671875" height="19" style="fill: rgb(0, 0, 0); fill-opacity: 0;"/></g><g class="traces" transform="translate(0,33.5)" style="opacity: 1;"><text class="legendtext" text-anchor="start" x="40" y="4.680000000000001" style="font-family: 'Open Sans', verdana, arial, sans-serif; font-size: 12px; fill: rgb(42, 63, 95); fill-opacity: 1; white-space: pre;">Design</text><g class="layers" style="opacity: 1;"><g class="legendfill"><path class="js-fill" d="M5,0h30v6h-30z" style="stroke-width: 0; fill: rgb(72, 40, 120); fill-opacity: 0.3;"/></g><g class="legendlines"><path class="js-line" d="M5,0h30" style="fill: none; stroke: rgb(72, 40, 120); stroke-opacity: 1; stroke-width: 0px;"/></g><g class="legendsymbols"><g class="legendpoints"><path class="scatterpts" transform="translate(20,0)" d="M4,0A4,4 0 1,1 0,-4A4,4 0 0,1 4,0Z" style="opacity: 0.6; stroke-width: 0px; fill: rgb(72, 40, 120); fill-opacity: 1;"/></g></g></g><rect class="legendtoggle" x="0" y="-9.5" width="106.671875" height="19" style="fill: rgb(0, 0, 0); fill-opacity: 0;"/></g><g class="traces" transform="translate(0,52.5)" style="opacity: 1;"><text class="legendtext" text-anchor="start" x="40" y="4.680000000000001" style="font-family: 'Open Sans', verdana, arial, sans-serif; font-size: 12px; fill: rgb(42, 63, 95); fill-opacity: 1; white-space: pre;">Sequence</text><g class="layers" style="opacity: 1;"><g class="legendfill"><path class="js-fill" d="M5,0h30v6h-30z" style="stroke-width: 0; fill: rgb(62, 73, 137); fill-opacity: 0.3;"/></g><g class="legendlines"><path class="js-line" d="M5,0h30" style="fill: none; stroke: rgb(62, 73, 137); stroke-opacity: 1; stroke-width: 0px;"/></g><g class="legendsymbols"><g class="legendpoints"><path class="scatterpts" transform="translate(20,0)" d="M4,0A4,4 0 1,1 0,-4A4,4 0 0,1 4,0Z" style="opacity: 0.6; stroke-width: 0px; fill: rgb(62, 73, 137); fill-opacity: 1;"/></g></g></g><rect class="legendtoggle" x="0" y="-9.5" width="106.671875" height="19" style="fill: rgb(0, 0, 0); fill-opacity: 0;"/></g><g class="traces" transform="translate(0,71.5)" style="opacity: 1;"><text class="legendtext" text-anchor="start" x="40" y="4.680000000000001" style="font-family: 'Open Sans', verdana, arial, sans-serif; font-size: 12px; fill: rgb(42, 63, 95); fill-opacity: 1; white-space: pre;">Knowledge</text><g class="layers" style="opacity: 1;"><g class="legendfill"><path class="js-fill" d="M5,0h30v6h-30z" style="stroke-width: 0; fill: rgb(49, 104, 142); fill-opacity: 0.3;"/></g><g class="legendlines"><path class="js-line" d="M5,0h30" style="fill: none; stroke: rgb(49, 104, 142); stroke-opacity: 1; stroke-width: 0px;"/></g><g class="legendsymbols"><g class="legendpoints"><path class="scatterpts" transform="translate(20,0)" d="M4,0A4,4 0 1,1 0,-4A4,4 0 0,1 4,0Z" style="opacity: 0.6; stroke-width: 0px; fill: rgb(49, 104, 142); fill-opacity: 1;"/></g></g></g><rect class="legendtoggle" x="0" y="-9.5" width="106.671875" height="19" style="fill: rgb(0, 0, 0); fill-opacity: 0;"/></g><g class="traces" transform="translate(0,90.5)" style="opacity: 1;"><text class="legendtext" text-anchor="start" x="40" y="4.680000000000001" style="font-family: 'Open Sans', verdana, arial, sans-serif; font-size: 12px; fill: rgb(42, 63, 95); fill-opacity: 1; white-space: pre;">Structure</text><g class="layers" style="opacity: 1;"><g class="legendfill"><path class="js-fill" d="M5,0h30v6h-30z" style="stroke-width: 0; fill: rgb(38, 130, 142); fill-opacity: 0.3;"/></g><g class="legendlines"><path class="js-line" d="M5,0h30" style="fill: none; stroke: rgb(38, 130, 142); stroke-opacity: 1; stroke-width: 0px;"/></g><g class="legendsymbols"><g class="legendpoints"><path class="scatterpts" transform="translate(20,0)" d="M4,0A4,4 0 1,1 0,-4A4,4 0 0,1 4,0Z" style="opacity: 0.6; stroke-width: 0px; fill: rgb(38, 130, 142); fill-opacity: 1;"/></g></g></g><rect class="legendtoggle" x="0" y="-9.5" width="106.671875" height="19" style="fill: rgb(0, 0, 0); fill-opacity: 0;"/></g><g class="traces" transform="translate(0,109.5)" style="opacity: 1;"><text class="legendtext" text-anchor="start" x="40" y="4.680000000000001" style="font-family: 'Open Sans', verdana, arial, sans-serif; font-size: 12px; fill: rgb(42, 63, 95); fill-opacity: 1; white-space: pre;">Function</text><g class="layers" style="opacity: 1;"><g class="legendfill"><path class="js-fill" d="M5,0h30v6h-30z" style="stroke-width: 0; fill: rgb(31, 158, 137); fill-opacity: 0.3;"/></g><g class="legendlines"><path class="js-line" d="M5,0h30" style="fill: none; stroke: rgb(31, 158, 137); stroke-opacity: 1; stroke-width: 0px;"/></g><g class="legendsymbols"><g class="legendpoints"><path class="scatterpts" transform="translate(20,0)" d="M4,0A4,4 0 1,1 0,-4A4,4 0 0,1 4,0Z" style="opacity: 0.6; stroke-width: 0px; fill: rgb(31, 158, 137); fill-opacity: 1;"/></g></g></g><rect class="legendtoggle" x="0" y="-9.5" width="106.671875" height="19" style="fill: rgb(0, 0, 0); fill-opacity: 0;"/></g></g></g><rect class="scrollbar" rx="20" ry="3" width="0" height="0" x="0" y="0" style="fill: rgb(128, 139, 164); fill-opacity: 1;"/></g><g class="g-gtitle"/></g></svg>