<?xml version="1.0" encoding="UTF-8"?>
<svg id="_图层_1" data-name=" 图层 1" xmlns="http://www.w3.org/2000/svg" viewBox="0 0 453.46 190.03">
  <defs>
    <style>
      .cls-1 {
        fill: #e91e63;
      }

      .cls-2, .cls-3 {
        isolation: isolate;
      }

      .cls-4 {
        fill: #ad1457;
      }

      .cls-3 {
        font-family: ComicSansMS-BoldItalic, 'Comic Sans MS';
        font-size: 72px;
        font-style: italic;
        font-weight: 700;
      }
    </style>
  </defs>
  <g>
    <path class="cls-4" d="M182.79,49.65c-29.12,30.99-53.67,33.34-82.04,36.61-29.31,3.07-62.54,6.37-100.75,47.02l8.22,7.09c31.63-33.65,58.45-36.46,86.72-39.21,28.06-2.94,60.37-6.43,96.07-44.42l-8.22-7.09h0Z"/>
    <path class="cls-4" d="M71.03,176.49l-55.47-47.88c-1.23-1.06-.8-3.11,1.08-5.11,1.88-2,3.95-2.62,5.19-1.56l55.47,47.88c1.23,1.06.8,3.11-1.08,5.11s-3.95,2.62-5.19,1.56h0ZM79.45,159.61l-49.31-42.56c-1.23-1.06-.8-3.11,1.08-5.11s3.95-2.62,5.19-1.56l49.31,42.56c1.23,1.06.8,3.11-1.08,5.11-1.88,2-3.95,2.62-5.19,1.56h0ZM87.86,142.74l-41.09-35.47c-1.23-1.06-.8-3.11,1.08-5.11s3.95-2.62,5.19-1.56l41.09,35.47c1.23,1.06.8,3.11-1.08,5.11-1.88,2-3.95,2.62-5.19,1.56h0ZM90.12,120.54l-20.54-17.73c-1.23-1.06-.8-3.11,1.08-5.11,1.88-2,3.95-2.62,5.19-1.56l20.54,17.73c1.23,1.06.8,3.11-1.08,5.11-1.88,2-3.95,2.62-5.19,1.56"/>
    <path class="cls-1" d="M169.19,68.09l-55.47-47.88c-1.23-1.06-.8-3.11,1.08-5.11s3.95-2.62,5.19-1.56l55.47,47.88c1.23,1.06.8,3.11-1.08,5.11s-3.95,2.62-5.19,1.56h0ZM154.61,79.64l-49.31-42.56c-1.23-1.06-.8-3.11,1.08-5.11,1.88-2,3.95-2.62,5.19-1.56l49.31,42.56c1.23,1.06.8,3.11-1.08,5.11s-3.95,2.62-5.19,1.56h0ZM137.97,89.42l-41.09-35.47c-1.23-1.06-.8-3.11,1.08-5.11,1.88-2,3.95-2.62,5.19-1.56l41.09,35.47c1.23,1.06.8,3.11-1.08,5.11s-3.95,2.62-5.19,1.56h0ZM115.17,93.88l-20.54-17.73c-1.23-1.06-.8-3.11,1.08-5.11s3.95-2.62,5.19-1.56l20.54,17.73c1.23,1.06.8,3.11-1.08,5.11s-3.95,2.62-5.19,1.56"/>
    <path class="cls-1" d="M65.74,190.03l-8.22-7.09c31.63-33.65,31.74-59.51,31.66-86.74.12-27.05.38-58.21,36.08-96.2l8.22,7.09c-29.12,30.99-29.01,54.62-29.45,82.01-.13,28.25-.09,60.27-38.3,100.93"/>
  </g>
  <g class="cls-2">
    <text class="cls-3" transform="translate(200.62 73.62) scale(1.04 1)"><tspan x="0" y="0">Protein</tspan><tspan x="0" y="86.4">Agent</tspan></text>
  </g>
</svg>